<svg xmlns="http://www.w3.org/2000/svg" viewBox="0 0 495.61 104.73"><defs><style>.cls-1{fill:#fff;}</style></defs><title>Ativo 1</title><g id="Camada_2" data-name="Camada 2"><g id="Camada_1-2" data-name="Camada 1"><path class="cls-1" d="M82.12,61.86a30.43,30.43,0,0,0,13.46,3.7c4.72,0,6.68-1.54,6.68-4.11s-1.54-3.9-7.3-5.85c-10.48-3.5-14.49-9.15-14.38-15.11C80.58,31,88.59,24,101,24a33,33,0,0,1,14.08,3l-2.67,10.79a25,25,0,0,0-10.89-2.88c-3.8,0-6,1.54-6,4s2,3.71,8.12,5.86c9.55,3.29,13.46,8.22,13.56,15.52,0,9.45-7.3,16.34-21.68,16.34A35.43,35.43,0,0,1,79.34,73Z"/><path class="cls-1" d="M147.26,11.61V25.18h11.2V36.69h-11.2V54.87c0,6.07,1.54,8.84,6.17,8.84a19.09,19.09,0,0,0,4.62-.41l.11,11.82a33,33,0,0,1-10.08,1.33c-5,0-9.24-1.74-11.81-4.31-2.88-3-4.32-7.81-4.32-14.9V36.69h-6.68V25.18H132V15.83Z"/><path class="cls-1" d="M182,55.29c.42,6.47,6.89,9.55,14.19,9.55a41.38,41.38,0,0,0,13.87-2.16l2,10.59a47.61,47.61,0,0,1-18.19,3.18c-17,0-26.81-9.86-26.81-25.58,0-12.75,7.91-26.82,25.38-26.82,16.23,0,22.4,12.64,22.4,25.07a36.54,36.54,0,0,1-.52,6.17Zm18.4-10.69c0-3.8-1.64-10.17-8.84-10.17-6.57,0-9.25,6.06-9.66,10.17Z"/><path class="cls-1" d="M229.06,75.42V36.69h-6.68V25.18h6.68V23.23c0-6.07,1.85-12.75,6.27-16.85a20.59,20.59,0,0,1,14-5,34,34,0,0,1,8.22,1l-.61,12a17,17,0,0,0-5-.72c-5.14,0-7.3,4-7.3,8.94v2.57h10.07V36.69h-10V75.42Z"/><path class="cls-1" d="M307.05,63.3a64.74,64.74,0,0,0,.82,12.12H293.79l-.92-5h-.31c-3.29,4-8.43,6.17-14.38,6.17-10.18,0-16.24-7.4-16.24-15.42,0-13,11.71-19.21,29.49-19.21v-.62c0-2.77-1.44-6.58-9.15-6.58a28.23,28.23,0,0,0-13.87,3.81l-2.87-10.07A41.25,41.25,0,0,1,285.06,24c16.75,0,22,9.86,22,21.78ZM291.94,51.69c-8.22,0-14.59,2-14.59,7.91,0,4,2.67,6,6.17,6a8.63,8.63,0,0,0,8.11-5.75,11.06,11.06,0,0,0,.31-2.68Z"/><path class="cls-1" d="M322.46,41.21c0-6.27-.2-11.51-.41-16h13.56l.72,7h.31a18.05,18.05,0,0,1,15.52-8.12c10.27,0,18,6.88,18,21.68V75.42H354.52V47.58c0-6.48-2.26-10.89-7.91-10.89-4.31,0-6.89,3-8,5.86a11,11,0,0,0-.52,3.9v29H322.46Z"/><path class="cls-1" d="M385.66,75.42V25.18h15.62V75.42Z"/><path class="cls-1" d="M416.79,41.21c0-6.27-.2-11.51-.41-16h13.56l.72,7H431a18.05,18.05,0,0,1,15.52-8.12c10.27,0,18,6.88,18,21.68V75.42H448.85V47.58c0-6.48-2.26-10.89-7.91-10.89-4.32,0-6.89,3-8,5.86a11.22,11.22,0,0,0-.51,3.9v29H416.79Z"/><path class="cls-1" d="M480,75.42V25.18h15.63V75.42Z"/><path class="cls-1" d="M38.91,79.76c.32,0,.64.06,1,.08Z"/><path class="cls-1" d="M3.25,22.14S5,16.32,13.69,9.05A52.14,52.14,0,0,1,25.46,1.3L26.32,0l-2,.24A40.59,40.59,0,0,0,10.49,10.42,37.42,37.42,0,0,0,3.25,22.14Z"/><path class="cls-1" d="M59.78,15.49l-9-3.5c-1.29.41-2.61.85-4,1.37C26.9,21,8.23,37.86,5.13,51.09c-.83,3.52-.47,6.43.88,8.65l.64,1a40.82,40.82,0,0,0,8,9.07c-2.34-2.27-3.25-5.61-2.22-10,3-12.75,21-29,40.16-36.34l1.74-.64Z"/><path class="cls-1" d="M25.88,9.89l-5.34-1C10.26,15.91,2.25,25,.45,32.68A14.23,14.23,0,0,0,.13,34.6C0,36.06,0,38,0,39.49a41.62,41.62,0,0,0,.9,7.42l.39,1.64a12.58,12.58,0,0,1,.11-6c2.06-8.79,11.28-19.25,23.1-27.29Z"/><path class="cls-1" d="M31.56,70.31c2-8.56,13.48-19.34,26.24-25l5-8.07L53,34.66c-15.79,7.13-29.88,20.47-32.38,31.1-1.26,5.39.69,9.13,4.92,10.87.85.35,2,.76,2.89,1.08a46.43,46.43,0,0,0,8.36,1.88l2.08.17C33.25,79.2,30.25,75.87,31.56,70.31Z"/><path class="cls-1" d="M53.86,73.63a2.43,2.43,0,0,1-.25-2,.14.14,0,0,1,0-.06s0,0,0-.06c.69-2.61,4.09-5.83,7.94-7.62l3.21-6.57-7.33-1.47C49.63,60.09,43,66.75,41.75,72.17c-1.51,6.44,5.12,8.67,14.81,5l.08,0c1.09-.41,1.17-.45,3.12-1.34l.26-.12C57.05,75.81,54.7,75.1,53.86,73.63Z"/><path class="cls-1" d="M134.2,104a4.6,4.6,0,0,1-6.24-1.21A9.56,9.56,0,0,1,128,93a4.17,4.17,0,0,1,3.64-2,4.33,4.33,0,0,1,2.58.73l-.42,1a3.54,3.54,0,0,0-1.85-.52,2.71,2.71,0,0,0-2,.83,4.42,4.42,0,0,0-1.1,2,10.79,10.79,0,0,0-.31,2.71,8.12,8.12,0,0,0,.85,3.92,2.73,2.73,0,0,0,2.56,1.57,3.45,3.45,0,0,0,1.85-.52Z"/><path class="cls-1" d="M145.41,97.89a11.67,11.67,0,0,1-.46,3.47,5.14,5.14,0,0,1-1.56,2.42,4.11,4.11,0,0,1-2.75.93,4,4,0,0,1-3.63-1.88,9.24,9.24,0,0,1-1.17-4.94,11.58,11.58,0,0,1,.46-3.45A5.12,5.12,0,0,1,137.87,92a4.17,4.17,0,0,1,2.77-.94,4,4,0,0,1,3.6,1.89A9.25,9.25,0,0,1,145.41,97.89Zm-1.79-.06a14.09,14.09,0,0,0-.13-2,7.85,7.85,0,0,0-.46-1.76,3,3,0,0,0-.92-1.32,2.32,2.32,0,0,0-1.47-.48,2.35,2.35,0,0,0-1.49.48,2.93,2.93,0,0,0-.93,1.32,8.43,8.43,0,0,0-.46,1.76,14.09,14.09,0,0,0-.13,2c0,3.72,1,5.57,3,5.57S143.62,101.55,143.62,97.83Z"/><path class="cls-1" d="M151.94,98.7h-4.35V97.35h4.35Z"/><path class="cls-1" d="M161.69,104a4.6,4.6,0,0,1-6.24-1.21,9.56,9.56,0,0,1,0-9.73,4.18,4.18,0,0,1,3.64-2,4.33,4.33,0,0,1,2.58.73l-.42,1a3.54,3.54,0,0,0-1.85-.52,2.68,2.68,0,0,0-2,.83,4.34,4.34,0,0,0-1.11,2,10.79,10.79,0,0,0-.31,2.71,8.12,8.12,0,0,0,.85,3.92,2.73,2.73,0,0,0,2.56,1.57,3.45,3.45,0,0,0,1.85-.52Z"/><path class="cls-1" d="M172,104.52h-2l-4.36-6.19h0v6.19h-1.75V91.78a6.84,6.84,0,0,1,3.3-.71,4.93,4.93,0,0,1,3.39,1,3.69,3.69,0,0,1,1.15,2.9,3.33,3.33,0,0,1-1.09,2.64,4.37,4.37,0,0,1-2.93,1v0Zm-2.06-9.44a3.17,3.17,0,0,0-.69-2.25,2.82,2.82,0,0,0-2.14-.72,3.21,3.21,0,0,0-1.51.29V98a4.18,4.18,0,0,0,1.14.11Q169.9,98.06,169.9,95.08Z"/><path class="cls-1" d="M180.36,104.52h-6.15V91.26h6.15v1.2H176v4.62h3.93v1.18H176v5.06h4.37Z"/><path class="cls-1" d="M192.15,104.52h-1.83l-1.25-4h-4.55l-1.29,4h-1.62l4.49-13.26h1.58Zm-3.37-5-1.54-5a7.37,7.37,0,0,1-.25-.87,4.46,4.46,0,0,1-.12-.55l0-.18h0a9.88,9.88,0,0,1-.4,1.6l-1.58,5Z"/><path class="cls-1" d="M200.14,92.46h-2.63v12.06h-1.78V92.46h-2.64v-1.2h7Z"/><path class="cls-1" d="M204,104.52h-1.78V91.26H204Z"/><path class="cls-1" d="M216.58,104.52H215l-5.65-9.67-.85-1.6h0c0,.54.05,1.08.05,1.64v9.63h-1.48V91.26H209l5.41,9.31.75,1.41h0c0-.43-.05-.92-.05-1.47V91.26h1.48Z"/><path class="cls-1" d="M228,104a6.73,6.73,0,0,1-3.35.73,5.11,5.11,0,0,1-4-1.77,7.57,7.57,0,0,1-1.56-5.15,7.18,7.18,0,0,1,1.59-5,5.13,5.13,0,0,1,4-1.77,5.81,5.81,0,0,1,3.1.69l-.52,1.1a4.57,4.57,0,0,0-2.39-.54,3.39,3.39,0,0,0-2.91,1.4,7.17,7.17,0,0,0-1,4.23,6.84,6.84,0,0,0,1,4.07,3.18,3.18,0,0,0,2.67,1.46,3.39,3.39,0,0,0,1.66-.31v-5h-2.26V97.08h4Z"/><path class="cls-1" d="M242.62,100.78a3.77,3.77,0,0,1-1.12,2.83,4,4,0,0,1-2.88,1.1,5.59,5.59,0,0,1-3.08-.73l.46-1.23a4.33,4.33,0,0,0,2.31.61,2.31,2.31,0,0,0,2.48-2.48,2.08,2.08,0,0,0-.53-1.47,5,5,0,0,0-1.78-1.08q-2.8-1.11-2.81-3.54a3.67,3.67,0,0,1,1-2.64,3.58,3.58,0,0,1,2.71-1.08,4.68,4.68,0,0,1,2.71.71l-.42,1.12a3.87,3.87,0,0,0-2.1-.62,2.1,2.1,0,0,0-1.62.63,2.46,2.46,0,0,0-.58,1.71,1.9,1.9,0,0,0,.57,1.47,5.24,5.24,0,0,0,1.65,1C241.62,97.83,242.62,99.07,242.62,100.78Z"/><path class="cls-1" d="M254.28,97.89a11.67,11.67,0,0,1-.46,3.47,5.14,5.14,0,0,1-1.56,2.42,4.12,4.12,0,0,1-2.76.93,4,4,0,0,1-3.62-1.88,9.24,9.24,0,0,1-1.17-4.94,11.58,11.58,0,0,1,.46-3.45A5.12,5.12,0,0,1,246.74,92a4.16,4.16,0,0,1,2.76-.94A4,4,0,0,1,253.11,93,9.25,9.25,0,0,1,254.28,97.89Zm-1.79-.06a14,14,0,0,0-.14-2,8.41,8.41,0,0,0-.45-1.76,3,3,0,0,0-.92-1.32,2.52,2.52,0,0,0-3,0,3,3,0,0,0-.94,1.32,8.41,8.41,0,0,0-.45,1.76,14.09,14.09,0,0,0-.13,2c0,3.72,1,5.57,3,5.57S252.49,101.55,252.49,97.83Z"/><path class="cls-1" d="M262.62,104.52h-5.76V91.26h1.77v12.06h4Z"/><path class="cls-1" d="M273,100.74a3.84,3.84,0,0,1-1.14,2.86,4.55,4.55,0,0,1-6,0,3.87,3.87,0,0,1-1.13-2.86V91.26h1.77v9.46a2.56,2.56,0,0,0,.72,1.92,2.49,2.49,0,0,0,3.46,0,2.63,2.63,0,0,0,.7-1.92V91.26H273Z"/><path class="cls-1" d="M282.1,92.46h-2.64v12.06h-1.77V92.46h-2.64v-1.2h7.05Z"/><path class="cls-1" d="M286,104.52h-1.77V91.26H286Z"/><path class="cls-1" d="M298.17,97.89a11.65,11.65,0,0,1-.47,3.47,5,5,0,0,1-1.56,2.42,4.11,4.11,0,0,1-2.75.93,4,4,0,0,1-3.62-1.88,9.15,9.15,0,0,1-1.18-4.94,11.91,11.91,0,0,1,.46-3.45A5.19,5.19,0,0,1,290.62,92a4.17,4.17,0,0,1,2.77-.94A3.94,3.94,0,0,1,297,93,9.16,9.16,0,0,1,298.17,97.89Zm-1.8-.06a14.09,14.09,0,0,0-.13-2,8.41,8.41,0,0,0-.45-1.76,2.93,2.93,0,0,0-.93-1.32,2.28,2.28,0,0,0-1.47-.48,2.33,2.33,0,0,0-1.48.48,2.88,2.88,0,0,0-.94,1.32,8.41,8.41,0,0,0-.45,1.76,14,14,0,0,0-.14,2c0,3.72,1,5.57,3,5.57S296.37,101.55,296.37,97.83Z"/><path class="cls-1" d="M310.19,104.52h-1.54L303,94.85l-.85-1.6h0c0,.54.05,1.08.05,1.64v9.63h-1.48V91.26h1.87l5.41,9.31.75,1.41h0q-.06-.65-.06-1.47V91.26h1.49Z"/><path class="cls-1" d="M319.59,100.78a3.77,3.77,0,0,1-1.13,2.83,4,4,0,0,1-2.88,1.1,5.62,5.62,0,0,1-3.08-.73l.46-1.23a4.33,4.33,0,0,0,2.31.61,2.46,2.46,0,0,0,1.82-.67,2.49,2.49,0,0,0,.67-1.81,2.12,2.12,0,0,0-.53-1.47,5.06,5.06,0,0,0-1.78-1.08q-2.82-1.11-2.82-3.54a3.68,3.68,0,0,1,1-2.64,3.54,3.54,0,0,1,2.7-1.08,4.71,4.71,0,0,1,2.72.71l-.43,1.12a3.86,3.86,0,0,0-2.09-.62,2.07,2.07,0,0,0-1.62.63,2.41,2.41,0,0,0-.58,1.71,1.9,1.9,0,0,0,.57,1.47,5.29,5.29,0,0,0,1.64,1C318.59,97.83,319.59,99.07,319.59,100.78Z"/><path class="cls-1" d="M333.56,92.46H329.2v4.62h3.91v1.18H329.2v6.26h-1.77V91.26h6.13Z"/><path class="cls-1" d="M344.92,97.89a11.67,11.67,0,0,1-.46,3.47,5.14,5.14,0,0,1-1.56,2.42,4.11,4.11,0,0,1-2.75.93,4,4,0,0,1-3.63-1.88,9.24,9.24,0,0,1-1.17-4.94,11.58,11.58,0,0,1,.46-3.45A5.12,5.12,0,0,1,337.38,92a4.17,4.17,0,0,1,2.77-.94,4,4,0,0,1,3.6,1.89A9.25,9.25,0,0,1,344.92,97.89Zm-1.79-.06a14.09,14.09,0,0,0-.13-2,7.85,7.85,0,0,0-.46-1.76,3,3,0,0,0-.92-1.32,2.32,2.32,0,0,0-1.47-.48,2.35,2.35,0,0,0-1.49.48,2.93,2.93,0,0,0-.93,1.32,8.43,8.43,0,0,0-.46,1.76,14.09,14.09,0,0,0-.13,2c0,3.72,1,5.57,3,5.57S343.13,101.55,343.13,97.83Z"/><path class="cls-1" d="M355.63,104.52h-2l-4.35-6.19h0v6.19h-1.75V91.78a6.8,6.8,0,0,1,3.29-.71,4.93,4.93,0,0,1,3.39,1,3.7,3.7,0,0,1,1.16,2.9,3.36,3.36,0,0,1-1.09,2.64,4.42,4.42,0,0,1-2.94,1v0Zm-2.06-9.44a3.17,3.17,0,0,0-.68-2.25,2.85,2.85,0,0,0-2.15-.72,3.19,3.19,0,0,0-1.5.29V98a4.13,4.13,0,0,0,1.14.11Q353.58,98.06,353.57,95.08Z"/><path class="cls-1" d="M372.63,104.52H370.8l-1.26-4H365l-1.29,4h-1.62l4.49-13.26h1.58Zm-3.37-5-1.55-5c-.1-.31-.18-.6-.25-.87s-.1-.45-.11-.55l0-.18h0a11.07,11.07,0,0,1-.4,1.6l-1.58,5Z"/><path class="cls-1" d="M388.21,100.93a3.26,3.26,0,0,1-1.31,2.85,5.89,5.89,0,0,1-3.49.93,7.6,7.6,0,0,1-3.62-.73V91.8a7,7,0,0,1,3.45-.73,5.29,5.29,0,0,1,3.3.92,3.12,3.12,0,0,1,.4,4.49,3.33,3.33,0,0,1-1.81,1v0a4.25,4.25,0,0,1,2.1,1.12A3,3,0,0,1,388.21,100.93ZM386,94.52c0-1.62-.93-2.43-2.78-2.43a5.22,5.22,0,0,0-1.75.29V97.1h.87a4.82,4.82,0,0,0,2.83-.62A2.28,2.28,0,0,0,386,94.52Zm.42,6.43a2.61,2.61,0,0,0-1-2.26,5.36,5.36,0,0,0-3.1-.7h-.89v5.28a5,5,0,0,0,1.87.3,3.63,3.63,0,0,0,2.24-.62A2.33,2.33,0,0,0,386.42,101Z"/><path class="cls-1" d="M396.77,104.52h-6.15V91.26h6.15v1.2h-4.38v4.62h3.93v1.18h-3.93v5.06h4.38Z"/><path class="cls-1" d="M405.28,92.46h-2.64v12.06h-1.77V92.46h-2.64v-1.2h7Z"/><path class="cls-1" d="M413.49,92.46h-2.64v12.06h-1.77V92.46h-2.64v-1.2h7.05Z"/><path class="cls-1" d="M421.69,104.52h-6.14V91.26h6.14v1.2h-4.37v4.62h3.93v1.18h-3.93v5.06h4.37Z"/><path class="cls-1" d="M432.25,104.52h-2l-4.36-6.19h0v6.19H424.1V91.78a6.84,6.84,0,0,1,3.3-.71,4.93,4.93,0,0,1,3.39,1,3.69,3.69,0,0,1,1.15,2.9,3.35,3.35,0,0,1-1.08,2.64,4.42,4.42,0,0,1-2.94,1v0Zm-2.06-9.44a3.22,3.22,0,0,0-.68-2.25,2.86,2.86,0,0,0-2.15-.72,3.14,3.14,0,0,0-1.5.29V98a4.05,4.05,0,0,0,1.13.11Q430.19,98.06,430.19,95.08Z"/><path class="cls-1" d="M446,92.46h-4.36v4.62h3.92v1.18h-3.92v6.26h-1.77V91.26H446Z"/><path class="cls-1" d="M456.45,100.74a3.84,3.84,0,0,1-1.14,2.86,4.55,4.55,0,0,1-6,0,3.87,3.87,0,0,1-1.13-2.86V91.26H450v9.46a2.56,2.56,0,0,0,.71,1.92,2.49,2.49,0,0,0,3.46,0,2.59,2.59,0,0,0,.7-1.92V91.26h1.62Z"/><path class="cls-1" d="M465.56,92.46h-2.64v12.06h-1.77V92.46h-2.64v-1.2h7.05Z"/><path class="cls-1" d="M475.89,100.74a3.84,3.84,0,0,1-1.14,2.86,4.1,4.1,0,0,1-3,1.13,4,4,0,0,1-3-1.13,3.87,3.87,0,0,1-1.13-2.86V91.26h1.77v9.46a2.56,2.56,0,0,0,.72,1.92,2.49,2.49,0,0,0,3.46,0,2.63,2.63,0,0,0,.7-1.92V91.26h1.62Z"/><path class="cls-1" d="M487,104.52h-2l-4.36-6.19h0v6.19h-1.76V91.78a6.84,6.84,0,0,1,3.3-.71,4.93,4.93,0,0,1,3.39,1,3.69,3.69,0,0,1,1.15,2.9,3.35,3.35,0,0,1-1.08,2.64,4.42,4.42,0,0,1-2.94,1v0ZM485,95.08a3.22,3.22,0,0,0-.68-2.25,2.86,2.86,0,0,0-2.15-.72,3.14,3.14,0,0,0-1.5.29V98a4.05,4.05,0,0,0,1.13.11Q485,98.06,485,95.08Z"/><path class="cls-1" d="M495.44,104.52H489.3V91.26h6.14v1.2h-4.37v4.62H495v1.18h-3.93v5.06h4.37Z"/></g></g></svg>